# xmcd
#
# Track frame offsets: 
#        150
#        18523
#        29725
#        39991
#        52191
#        67389
#        77207
#        90640
#        102384
#        114788
#        126122
#        138209
#        150812
#        167841
#        184241
#        196738
#        211579
#        226010
#        237576
#        250618
#        267821
#        278319
#        291423
#        308087
#        322901
#
# Disc length: 4486 seconds
#
# Revision: 2
# Processed by: cddbd v1.5.2PL0 Copyright (c) Steve Scherf et al.
# Submitted via: ExactAudioCopyFreeDBPlugin 1.0
#
DISCID=50118419
DTITLE=Various Artist - The Greatest Divas CD2
DYEAR=2005
DGENRE=Jazz
TTITLE0=Nina Simone - I Love You Porgy
TTITLE1=Ella Fitzgerald - Misty Blue
TTITLE2=Shirley Bassey - S'Wonderful
TTITLE3=Nancy Wilson - Try A Little Tenderness
TTITLE4=Edith Piaf - Autumn Leaves (Les Feuiles Mortes)
TTITLE5=Julie London - Mad About the Boy
TTITLE6=Judy Garland - A Foggy Day
TTITLE7=Keely Smith - You Go to My Head
TTITLE8=Kay Starr - Lover Man (Oh Where Can You Be)
TTITLE9=Jeri Southern - Lets Fly Away
TTITLE10=Dorothy Squires - Unforgettable
TTITLE11=Vikki Carr - It Must Be Him (Seul Sur Son Etoile)
TTITLE12=Sarah Vaughan - These Foolish Things
TTITLE13=Dinah Shore - Lover Come Back to Me
TTITLE14=June Christy - I Let a Song Go Out of My Heart
TTITLE15=Francoise Hardy - Suzanne (English Version)
TTITLE16=Rosemary Squires - I Poured My Heart Into a Song
TTITLE17=Ruby Murray - Let Me Go
TTITLE18=Bobbie Gentry - I'll Never Fall In Love Again
TTITLE19=Dakota Station - God Bless the Child
TTITLE20=Dinah Washington - Call Me Irresponsible
TTITLE21=Eve Boswell - Here In My Heart
TTITLE22=Anne Shelton - Smoke Gets In Your Eyes
TTITLE23=Alma Cogan - Little Things Mean A Lot
TTITLE24=Eartha Kitt - Moon River
EXTD=YEAR: 2005
EXTT0=
EXTT1=
EXTT2=
EXTT3=
EXTT4=
EXTT5=
EXTT6=
EXTT7=
EXTT8=
EXTT9=
EXTT10=
EXTT11=
EXTT12=
EXTT13=
EXTT14=
EXTT15=
EXTT16=
EXTT17=
EXTT18=
EXTT19=
EXTT20=
EXTT21=
EXTT22=
EXTT23=
EXTT24=
PLAYORDER=
